# xmcd
#
# Track frame offsets:
#	150
#	24900
#	50187
#	75837
#	98130
#	126812
#	154210
#	178975
#	205200
#
# Disc length: 3145 seconds
#
# Revision: 0
# Processed by: cddbd v1.5.1PL0 Copyright (c) Steve Scherf et al.
# Submitted via: EasyCDDAExtractor 7.1.2.1
#
DISCID=700c4709
DTITLE=The Reese Project - Faith Hope and Clarity - The Originals
DYEAR=1993
DGENRE=House
TTITLE0=I Believe
TTITLE1=Pressure of Life
TTITLE2=Human
TTITLE3=Miracle of Life
TTITLE4=Sacrifice
TTITLE5=Free at Last
TTITLE6=So Deep
TTITLE7=The Colour of Love
TTITLE8=Direct Me (Joey Negro Mix)
EXTD=
EXTT0=
EXTT1=
EXTT2=
EXTT3=
EXTT4=
EXTT5=
EXTT6=
EXTT7=
EXTT8=
PLAYORDER=
